<?xml version="1.0" encoding="utf-8"?>
<!-- Generator: Adobe Illustrator 25.4.1, SVG Export Plug-In . SVG Version: 6.00 Build 0)  -->
<svg version="1.1" id="Capa_1" xmlns="http://www.w3.org/2000/svg" xmlns:xlink="http://www.w3.org/1999/xlink" x="0px" y="0px"
	 viewBox="0 0 65.05 64.56" style="enable-background:new 0 0 65.05 64.56;" xml:space="preserve">
<style type="text/css">
	.st0{fill:#FFFFFF;}
</style>
<g>
	<path class="st0" d="M41.93,37.56c1.4,1.37,2.81,2.76,4.23,4.15c-2.85,1.9-2.85,1.9-4.1,4.13c-1.38-1.42-2.75-2.84-4.14-4.27
		c-6.42,4.67-13.29,6.09-20.73,4.05c-5.49-1.51-9.85-4.73-13-9.47c-6.37-9.56-4.84-22.2,3.56-29.96c8.47-7.82,21.24-8.24,30.34-1.05
		C47.06,12.22,50.29,26.57,41.93,37.56z M6.36,23.24c-0.02,9.44,7.67,17.13,17.15,17.15c9.47,0.02,17.15-7.65,17.15-17.13
		c0-9.47-7.68-17.17-17.13-17.17C14.07,6.1,6.38,13.78,6.36,23.24z"/>
	<path class="st0" d="M43.72,48.43c0.07-2.07,0.99-3.63,2.88-4.5c1.87-0.86,3.68-0.63,5.3,0.68c0.53,0.43,0.99,0.94,1.47,1.42
		c3.3,3.3,6.62,6.58,9.89,9.9c2.53,2.57,1.79,6.74-1.43,8.14c-1.96,0.85-3.87,0.6-5.4-0.89c-3.85-3.75-7.62-7.57-11.41-11.39
		C44.12,50.88,43.72,49.72,43.72,48.43z"/>
	<path class="st0" d="M8.5,22.45c0.39-7.82,6.72-14.01,14.55-14.24c0.13,0,0.26-0.01,0.39-0.01c0.63,0.01,1.02,0.33,1.02,0.95
		c0,0.6-0.38,0.95-1.01,0.96c-1.72,0.03-3.4,0.31-4.97,1.03c-5.07,2.31-7.78,6.27-8.09,11.83c-0.04,0.62-0.18,1.12-0.85,1.22
		c-0.53,0.08-0.94-0.17-1.04-0.72C8.45,23.14,8.5,22.79,8.5,22.45z"/>
</g>
</svg>
