<?xml version="1.0" encoding="utf-8"?>
<!-- Generator: Adobe Illustrator 25.4.1, SVG Export Plug-In . SVG Version: 6.00 Build 0)  -->
<svg version="1.1" id="Capa_1" xmlns="http://www.w3.org/2000/svg" xmlns:xlink="http://www.w3.org/1999/xlink" x="0px" y="0px"
	 viewBox="0 0 20.47 19" style="enable-background:new 0 0 20.47 19;" xml:space="preserve">
<style type="text/css">
	.st0{fill:#FFFFFF;}
</style>
<path class="st0" d="M10.25,0c1.74,0,3.48,0,5.22,0c2.76,0,4.99,2.23,5,4.98c0,2.04,0,4.08,0,6.12c0,2.78-2.22,5-5.01,5.01
	c-1.08,0-2.16,0-3.24,0c-0.15,0-0.24,0.05-0.34,0.15c-0.93,0.91-1.87,1.81-2.8,2.71c-0.02,0.02-0.04,0.05-0.06,0.05
	c-0.09,0.02-0.19,0.05-0.26,0.02c-0.04-0.02-0.06-0.16-0.04-0.23c0.19-0.6,0.26-1.22,0.22-1.85c-0.01-0.22-0.06-0.44-0.07-0.66
	c-0.01-0.16-0.08-0.19-0.23-0.19c-1.2,0.01-2.41,0.01-3.61,0c-1.7-0.02-3.07-0.72-4.08-2.08C0.31,13.17,0,12.2,0,11.13
	C0,9.1,0,7.08,0,5.05c0-2.63,1.87-4.72,4.49-5.03C4.66,0,4.84,0,5.01,0C6.76,0,8.51,0,10.25,0z M8.56,8.05
	c0,0.93,0.74,1.66,1.69,1.67c0.9,0.01,1.66-0.75,1.66-1.66c0-0.92-0.75-1.67-1.67-1.67C9.32,6.38,8.57,7.13,8.56,8.05z M15.66,9.72
	c0.91,0,1.68-0.78,1.67-1.67c-0.01-0.92-0.76-1.66-1.68-1.66c-0.92,0-1.67,0.76-1.67,1.67C13.98,8.98,14.73,9.72,15.66,9.72z
	 M4.78,9.71c0.91,0.03,1.67-0.67,1.71-1.6C6.53,7.21,5.8,6.42,4.9,6.39C3.96,6.35,3.18,7.07,3.15,8.02
	C3.12,8.94,3.92,9.74,4.78,9.71z"/>
</svg>
