<?xml version="1.0" encoding="utf-8"?>
<!-- Generator: Adobe Illustrator 25.4.1, SVG Export Plug-In . SVG Version: 6.00 Build 0)  -->
<svg version="1.1" id="Capa_1" xmlns="http://www.w3.org/2000/svg" xmlns:xlink="http://www.w3.org/1999/xlink" x="0px" y="0px"
	 viewBox="0 0 53.06 31" style="enable-background:new 0 0 53.06 31;" xml:space="preserve">
<style type="text/css">
	.st0{fill:#FFFFFF;}
</style>
<g>
	<path class="st0" d="M39.92,0c0.34,0.03,0.67,0.06,1.01,0.09c1.68,0.17,3.31,0.56,4.84,1.31c0.67,0.33,1.36,0.65,1.98,1.06
		c0.77,0.51,1.5,1.08,2.2,1.68c0.93,0.8,1.71,1.74,2.4,2.75c0.13,0.19,0.31,0.36,0.46,0.54c0.06,0.08,0.12,0.16,0.18,0.23
		c-0.81,0.38-1.6,0.74-2.38,1.11c-1.08,0.51-2.16,1.02-3.24,1.54c-0.19,0.09-0.29,0.05-0.4-0.12c-1.34-2.13-3.27-3.4-5.72-3.9
		C39.46,5.92,37.7,6.01,36,6.68c-2.73,1.09-4.59,3.04-5.57,5.81c-0.42,1.2-0.59,2.45-0.48,3.71c0.16,1.84,0.79,3.51,1.93,4.97
		c1.08,1.38,2.43,2.42,4.07,3.06c0.97,0.38,1.99,0.58,3.04,0.59c2.6,0.01,5.21,0,7.81,0c0.07,0,0.14,0,0.23,0c0-1.7,0-3.38,0-5.08
		c-3.13,0-6.25,0-9.39,0c0-2,0-3.98,0-5.98c5.14,0,10.27,0,15.42,0c0,5.74,0,11.46,0,17.21c-0.09,0-0.17,0-0.24,0
		c-3.32,0-6.64,0-9.96,0c-0.95,0-1.91,0.04-2.86,0.03c-0.64-0.01-1.28-0.07-1.92-0.12c-0.29-0.02-0.57-0.05-0.86-0.09
		c-0.16-0.02-0.31-0.08-0.47-0.11c-0.2-0.04-0.4-0.07-0.61-0.09c-0.71-0.06-1.36-0.35-2.03-0.58c-0.9-0.3-1.77-0.7-2.59-1.18
		c-1.26-0.75-2.4-1.67-3.41-2.73c-1.08-1.13-1.98-2.39-2.64-3.8c-0.37-0.79-0.65-1.63-0.95-2.45c-0.33-0.91-0.49-1.87-0.58-2.83
		c-0.08-0.83-0.05-1.67-0.02-2.51c0.03-1.03,0.22-2.04,0.48-3.04c0.24-0.92,0.58-1.81,1-2.66c0.97-2.01,2.31-3.74,4.02-5.18
		c2.02-1.68,4.32-2.79,6.89-3.3c0.88-0.17,1.79-0.21,2.68-0.3c0.08-0.01,0.16-0.02,0.23-0.03C39.46,0,39.69,0,39.92,0z"/>
	<path class="st0" d="M0,14.43c0.01-0.1,0.03-0.2,0.03-0.3c0-4.6,0-9.19,0-13.79c0-0.32,0-0.32,0.33-0.32c3.29,0,6.58,0,9.87,0
		c1.13,0,2.27-0.02,3.4-0.02c1.6,0,3.19,0,4.79,0c0.94,0,1.87,0.02,2.81,0.02c0.62,0,1.24-0.01,1.86-0.02
		c0.28,0,0.28-0.01,0.28,0.27c0,1.85,0,3.7,0,5.55c0,0.07,0,0.14,0,0.23c-5.77,0-11.52,0-17.28,0c0,2.03,0,4.04,0,6.08
		c4.76,0,9.51,0,14.28,0c0,2.02,0,4.01,0,6.02c-4.76,0-9.51,0-14.28,0c-0.01,0.08-0.02,0.15-0.02,0.21c0,2.85,0,5.71,0,8.56
		c0,1.36,0,2.72,0,4.08C4.05,31,2.03,31,0,31C0,25.47,0,19.95,0,14.43z"/>
</g>
</svg>
