<?xml version="1.0" encoding="utf-8"?>
<!-- Generator: Adobe Illustrator 25.4.1, SVG Export Plug-In . SVG Version: 6.00 Build 0)  -->
<svg version="1.1" id="Capa_1" xmlns="http://www.w3.org/2000/svg" xmlns:xlink="http://www.w3.org/1999/xlink" x="0px" y="0px"
	 viewBox="0 0 20 19" style="enable-background:new 0 0 20 19;" xml:space="preserve">
<style type="text/css">
	.st0{fill:#FFFFFF;}
</style>
<g id="Iconly_Bold_Heart_00000145768518502988771030000009266321138273104827_">
	<g id="Heart_00000096056943071669094060000015311874569615402638_" transform="translate(2 2.501)">
		<path id="Heart-2_00000071529828913061726240000001772229756075326132_" class="st0" d="M8.03,16.5L8.03,16.5l-0.26-0.16
			c-2.29-1.42-4.43-3.09-6.37-4.96c-1.34-1.36-2.37-3-3.01-4.8C-2.18,4.86-2.13,2.99-1.46,1.3c0.67-1.68,2.06-2.98,3.79-3.54
			c0.29-0.1,0.59-0.17,0.89-0.21h0.12C3.61-2.48,3.89-2.5,4.17-2.5h0.11c0.62,0.02,1.24,0.13,1.83,0.33h0.06
			c0.03,0.01,0.06,0.04,0.09,0.06c0.22,0.07,0.43,0.15,0.63,0.26l0.38,0.17c0.1,0.06,0.19,0.12,0.28,0.19
			c0.06,0.04,0.11,0.08,0.15,0.1l0.04,0.02C7.84-1.32,7.92-1.26,8-1.2c1.09-0.84,2.43-1.3,3.81-1.3h0.04c0.63,0,1.26,0.09,1.86,0.29
			c1.71,0.55,3.09,1.84,3.76,3.52c0.65,1.69,0.71,3.55,0.16,5.27c-0.63,1.81-1.66,3.45-3.01,4.81c-1.93,1.87-4.05,3.53-6.33,4.96
			L8.03,16.5L8.03,16.5z M12.94,0.62c-0.34,0-0.64,0.22-0.76,0.54c-0.14,0.42,0.08,0.88,0.5,1.03c0.65,0.25,1.07,0.88,1.07,1.57
			v0.03c-0.02,0.22,0.05,0.45,0.19,0.62c0.14,0.17,0.35,0.27,0.57,0.29c0.42-0.02,0.76-0.34,0.79-0.76V3.82
			c0.03-1.39-0.81-2.66-2.11-3.16C13.11,0.63,13.03,0.62,12.94,0.62z"/>
	</g>
</g>
</svg>
