<?xml version="1.0" encoding="utf-8"?>
<!-- Generator: Adobe Illustrator 25.4.1, SVG Export Plug-In . SVG Version: 6.00 Build 0)  -->
<svg version="1.1" id="Capa_1" xmlns="http://www.w3.org/2000/svg" xmlns:xlink="http://www.w3.org/1999/xlink" x="0px" y="0px"
	 viewBox="0 0 20 19" style="enable-background:new 0 0 20 19;" xml:space="preserve">
<style type="text/css">
	.st0{fill:#FFFFFF;}
</style>
<g id="Iconly_Bold_Send" transform="translate(336)">
	<g id="Send" transform="translate(2 2)">
		<path id="Send-2" class="st0" d="M-319.15-1.37c-0.47-0.49-1.18-0.67-1.83-0.48l-15.22,4.43c-0.68,0.19-1.19,0.75-1.31,1.44
			c-0.08,0.79,0.29,1.55,0.95,1.99l4.76,2.93c0.49,0.3,1.12,0.23,1.52-0.18l5.45-5.49c0.27-0.28,0.7-0.29,0.98-0.02
			c0.01,0.01,0.01,0.01,0.02,0.02c0.27,0.28,0.27,0.73,0,1.01l-5.46,5.49c-0.41,0.41-0.48,1.04-0.18,1.53l2.91,4.81
			c0.33,0.56,0.93,0.9,1.57,0.89c0.08,0,0.16,0,0.24-0.01c0.73-0.09,1.34-0.61,1.54-1.31l4.51-15.2
			C-318.5-0.18-318.67-0.88-319.15-1.37"/>
	</g>
</g>
</svg>
