<?xml version="1.0" encoding="utf-8"?>
<!-- Generator: Adobe Illustrator 25.4.1, SVG Export Plug-In . SVG Version: 6.00 Build 0)  -->
<svg version="1.1" id="Capa_1" xmlns="http://www.w3.org/2000/svg" xmlns:xlink="http://www.w3.org/1999/xlink" x="0px" y="0px"
	 viewBox="0 0 77.41 64.56" style="enable-background:new 0 0 77.41 64.56;" xml:space="preserve">
<style type="text/css">
	.st0{fill:#FFFFFF;}
</style>
<g>
	<path class="st0" d="M13.56,19.98c-0.6-0.1-1.13,0.17-1.68,0.29c-1.58,0.36-3.15,0.78-4.73,1.17c-0.92,0.23-1.83,0.26-2.73-0.14
		c-1-0.44-1.72-1.16-2.04-2.21c-0.33-1.09-0.6-2.19-0.89-3.29c-0.4-1.53-0.8-3.06-1.19-4.59C0.19,10.68,0.04,10.15,0,9.61
		C-0.12,7.98,0.88,6.2,3.07,5.66c2.86-0.7,5.73-1.39,8.6-2.1c1.7-0.42,3.39-0.86,5.09-1.28c1.88-0.47,3.75-0.97,5.64-1.41
		c1.15-0.26,2.31-0.47,3.5-0.47c1.56,0,3.13-0.04,4.69-0.06c0.14,0,0.29,0.03,0.45,0.05c0.19,0.6,0.35,1.18,0.55,1.76
		c0.5,1.44,1.38,2.6,2.61,3.5c0.92,0.67,1.94,1.13,3.05,1.32c0.57,0.1,1.17,0.08,1.76,0.09c0.57,0.01,1.13-0.09,1.68-0.24
		c1.6-0.45,2.89-1.35,3.93-2.63c0.74-0.92,1.16-2,1.45-3.13c0.05-0.2,0.11-0.41,0.16-0.62c0.09-0.03,0.17-0.08,0.24-0.09
		c1.44,0,2.88-0.02,4.31,0c1.91,0.04,3.76,0.4,5.61,0.87c4.37,1.12,8.75,2.18,13.13,3.27c1.59,0.4,3.19,0.78,4.79,1.17
		c1.3,0.33,2.29,1.06,2.82,2.33c0.28,0.68,0.38,1.39,0.2,2.1c-0.49,1.98-0.99,3.97-1.5,5.95c-0.26,1.02-0.5,2.05-0.83,3.05
		c-0.58,1.77-2.29,2.8-4.13,2.45c-1.41-0.27-2.79-0.64-4.19-0.97c-0.72-0.17-1.43-0.36-2.14-0.54c-0.12-0.03-0.25-0.06-0.37-0.06
		c-0.49-0.03-0.7,0.15-0.74,0.64c-0.02,0.21-0.01,0.42-0.01,0.63c0,12.86,0,25.72,0,38.57c0,0.48-0.01,0.98-0.11,1.45
		c-0.34,1.52-1.58,2.7-3.15,2.89c-0.46,0.05-0.93,0.08-1.39,0.08c-13.43,0-26.86,0-40.29,0c-0.63,0-1.26-0.04-1.88-0.23
		c-1.37-0.42-2.54-1.81-2.55-3.36c0-0.27-0.01-0.55-0.01-0.82c0-12.84,0-25.67,0-38.51c0-0.25-0.02-0.51-0.05-0.76
		C13.96,20.32,13.86,20.11,13.56,19.98z M10.08,6.52C9.57,6.65,9.1,6.77,8.64,6.89C6.98,7.3,5.32,7.69,3.66,8.11
		C2.67,8.37,2.34,8.97,2.6,9.98c0.09,0.37,0.2,0.73,0.29,1.1c0.59,2.31,1.2,4.61,1.76,6.92c0.2,0.81,0.89,1.25,1.72,1.05
		c0.86-0.21,1.72-0.43,2.58-0.64c1.23-0.3,2.45-0.62,3.69-0.89c2.34-0.52,3.9,1.35,3.86,3.01c-0.01,0.27,0.01,0.55,0.01,0.82
		c0,12.88,0,25.76-0.01,38.64c0,1.35,0.66,1.75,1.72,1.73c0.02,0,0.04,0,0.06,0c13.62,0,27.24,0,40.86,0c0.21,0,0.43,0.01,0.63-0.03
		c0.61-0.11,0.98-0.47,1.09-1.08c0.05-0.25,0.03-0.51,0.03-0.76c0-12.84,0-25.68,0-38.52c0-0.25,0-0.51,0-0.76
		c0.01-1.97,1.79-3.52,3.76-3.06c1.09,0.26,2.18,0.51,3.26,0.77c1.02,0.25,2.04,0.51,3.07,0.76c0.85,0.21,1.58-0.24,1.72-1.04
		c0.02-0.12,0.07-0.24,0.11-0.36c0.62-2.41,1.24-4.82,1.85-7.23c0.09-0.35,0.16-0.7,0.18-1.05c0.04-0.5-0.23-0.85-0.65-1.07
		c-0.18-0.1-0.39-0.16-0.59-0.22c-1.04-0.26-2.09-0.52-3.13-0.78c-2.5-0.62-4.99-1.23-7.49-1.85c-2.82-0.7-5.65-1.4-8.47-2.11
		c-1.17-0.3-2.36-0.42-3.56-0.48c-0.8-0.04-1.61-0.01-2.41-0.01c-0.14,0-0.28,0.03-0.4,0.04C48,3.22,47.87,3.51,47.74,3.8
		c-0.71,1.6-1.81,2.91-3.23,3.92c-1.67,1.2-3.55,1.82-5.62,1.87c-2.25,0.05-4.31-0.57-6.12-1.87c-1.5-1.08-2.64-2.48-3.35-4.21
		c-0.09-0.23-0.21-0.45-0.33-0.7c-1.21,0.05-2.37,0.11-3.53,0.13c-0.96,0.02-1.88,0.21-2.81,0.43c-1.46,0.35-2.9,0.73-4.36,1.1
		c-0.13,0.03-0.26,0.08-0.4,0.12c0.33,1.69,0.89,3.28,1.19,4.97c-0.92,0.23-1.78,0.44-2.63,0.66c-0.88,0.22-1.75,0.48-2.63,0.68
		c-0.85,0.19-1.68,0.49-2.57,0.61C10.92,9.81,10.5,8.18,10.08,6.52z"/>
	<path class="st0" d="M39.13,28.56c0.02-1.59,0.12-3.17,0.47-4.72c0.2-0.9,0.48-1.8,0.84-2.65c0.74-1.73,2.02-2.88,3.9-3.3
		c1.62-0.36,3.22-0.34,4.81,0.16c1.4,0.44,2.4,1.36,3.11,2.63c0.44,0.8,0.7,1.67,0.93,2.55c0.32,1.23,0.5,2.48,0.52,3.75
		c0.01,0.51,0.1,1.01,0.08,1.52c-0.05,1.56-0.07,3.13-0.4,4.66c-0.29,1.31-0.62,2.63-1.38,3.78c-0.92,1.39-2.22,2.15-3.83,2.45
		c-0.77,0.14-1.55,0.17-2.33,0.12c-1.28-0.07-2.5-0.38-3.56-1.15c-1.13-0.82-1.75-1.97-2.2-3.25c-0.41-1.18-0.66-2.4-0.76-3.64
		C39.24,30.5,39.19,29.53,39.13,28.56z M49.5,28.56c-0.05-1.01-0.07-2.03-0.17-3.04c-0.08-0.79-0.2-1.59-0.39-2.37
		c-0.38-1.61-1.72-2.39-3.27-1.95c-0.69,0.2-1.2,0.61-1.47,1.28c-0.16,0.39-0.31,0.79-0.41,1.2c-0.28,1.15-0.33,2.34-0.39,3.52
		c-0.07,1.52-0.04,3.04,0.12,4.56c0.09,0.9,0.28,1.78,0.56,2.65c0.34,1.02,1.26,1.79,2.58,1.69c0.89-0.07,1.53-0.49,1.9-1.26
		c0.24-0.51,0.41-1.06,0.52-1.62C49.41,31.69,49.48,30.13,49.5,28.56z"/>
	<path class="st0" d="M29.39,17.82c1.18,0,2.29,0,3.4,0c0.11,0.52,0.12,20.53,0.02,21.12c-0.54,0.1-3.64,0.1-4.21-0.01
		c-0.06-1.59-0.02-3.19-0.02-4.79c-0.01-1.61,0-3.22,0-4.82c0-1.61,0-3.21,0-4.83c-0.41-0.16-0.81-0.06-1.2-0.08
		c-0.42-0.02-0.85,0-1.27,0c-0.4,0-0.8,0-1.21,0c-0.4,0-0.8,0-1.27,0c-0.01-0.49-0.02-0.94-0.02-1.4c0-0.46,0-0.93,0-1.46
		c0.25-0.02,0.47-0.03,0.7-0.05c0.82-0.07,1.64-0.11,2.44-0.34c1.44-0.42,2.25-1.41,2.56-2.85C29.33,18.16,29.36,18.02,29.39,17.82z
		"/>
</g>
</svg>
