<?xml version="1.0" encoding="utf-8"?>
<!-- Generator: Adobe Illustrator 25.4.1, SVG Export Plug-In . SVG Version: 6.00 Build 0)  -->
<svg version="1.1" id="Capa_1" xmlns="http://www.w3.org/2000/svg" xmlns:xlink="http://www.w3.org/1999/xlink" x="0px" y="0px"
	 viewBox="0 0 54.42 64.56" style="enable-background:new 0 0 54.42 64.56;" xml:space="preserve">
<style type="text/css">
	.st0{fill:#FFFFFF;}
</style>
<g>
	<g>
		<path class="st0" d="M6.07,50.8c-0.56-0.14-1.6-0.21-3.17-0.21h-2.93v13.98h1.85V58.3h0.71c1.71,0,2.85-0.07,3.49-0.23
			c0.89-0.21,1.6-0.64,2.11-1.26c0.51-0.63,0.77-1.43,0.77-2.38c0-0.95-0.27-1.75-0.79-2.38C7.57,51.42,6.89,51,6.07,50.8z
			 M6.99,54.43c0,0.42-0.11,0.79-0.33,1.12c-0.22,0.33-0.51,0.57-0.89,0.72c-0.39,0.15-1.04,0.23-1.93,0.23l-2.04-0.02v-4.07h2.13
			c0.88,0,1.5,0.07,1.87,0.22c0.35,0.14,0.63,0.37,0.85,0.7C6.88,53.67,6.99,54.03,6.99,54.43z"/>
		<polygon class="st0" points="16.67,50.59 14.83,50.59 14.83,64.56 21.86,64.56 21.86,62.76 16.67,62.76 		"/>
		<path class="st0" d="M32.52,50.59l-6.6,13.98h2.05l2.1-4.43h5.49l2.12,4.43h2l-6.52-13.98H32.52z M34.74,58.33h-3.82l1.91-4.04
			L34.74,58.33z"/>
		<polygon class="st0" points="52.32,50.59 49.07,55.92 45.83,50.7 45.76,50.59 43.62,50.59 48.17,57.94 48.17,64.56 50,64.56 
			50,57.94 54.46,50.59 		"/>
	</g>
	<path class="st0" d="M27.27,44.01c-12.15,0-22-9.86-22-22.02c0-12.16,9.88-22,22.08-21.99c12.13,0.01,21.94,9.89,21.93,22.08
		C49.27,34.19,39.4,44.01,27.27,44.01z M19.33,33.3c0.04,0.05,0.1,0.13,0.16,0.19c1.65,1.51,3.3,3.01,4.95,4.52
		c0.14,0.13,0.25,0.15,0.43,0.09c3.11-1.08,6.23-2.15,9.35-3.24c0.11-0.04,0.23-0.15,0.28-0.26c1.15-2.5,1.97-5.1,2.48-7.8
		c0.03-0.18-0.01-0.28-0.14-0.39c-2.05-1.75-4.09-3.51-6.13-5.28c-0.14-0.12-0.26-0.14-0.43-0.08c-2.96,0.95-5.93,1.89-8.89,2.82
		c-0.23,0.07-0.31,0.19-0.36,0.41c-0.46,2.5-0.93,4.99-1.4,7.49C19.52,32.26,19.43,32.76,19.33,33.3z M31.15,15.89
		c-0.07,1.72-0.12,2.98-0.17,4.24c-0.01,0.15,0.03,0.25,0.15,0.36c2.07,1.77,4.15,3.55,6.21,5.33c0.13,0.11,0.23,0.12,0.39,0.07
		c2.21-0.74,4.3-1.73,6.32-2.88c0.18-0.1,0.26-0.22,0.27-0.43c0.1-2.49,0.2-4.98,0.3-7.47c0-0.09-0.05-0.23-0.12-0.28
		c-2.27-1.8-4.55-3.6-6.83-5.39c-0.07-0.06-0.21-0.09-0.3-0.06c-2.08,0.67-4.16,1.36-6.25,2.04c-0.16,0.05-0.18,0.13-0.18,0.28
		C31.03,13.24,31.1,14.79,31.15,15.89z M15.74,33.46c0.76-0.07,1.64-0.16,2.53-0.23c0.25-0.02,0.31-0.14,0.35-0.36
		c0.52-2.81,1.04-5.62,1.59-8.42c0.1-0.5,0.04-0.9-0.22-1.35c-1.31-2.17-2.78-4.21-4.44-6.12c-0.09-0.1-0.16-0.17-0.33-0.14
		c-1.75,0.34-3.5,0.68-5.25,1.01c-0.15,0.03-0.24,0.08-0.29,0.24C8.87,20.5,8.33,22.97,8,25.49c-0.01,0.1,0.03,0.22,0.08,0.31
		c0.32,0.51,0.64,1.02,0.97,1.53c1.21,1.89,2.41,3.78,3.62,5.66c0.06,0.09,0.19,0.2,0.29,0.21C13.84,33.29,14.73,33.36,15.74,33.46z
		 M37.08,8.66c-0.26-0.95-0.51-1.87-0.76-2.79c-0.25-0.92-0.5-1.85-0.76-2.8c0.48,0,0.93,0,1.42,0c-3.03-1.59-6.36-2.31-9.37-2.35
		c-0.09,0-0.18,0.02-0.26,0.05c-2.09,0.63-4.03,1.57-5.83,2.81c-0.14,0.09-0.19,0.19-0.18,0.36c0.07,1.32,0.14,2.64,0.2,3.95
		c0.01,0.14,0.06,0.2,0.19,0.22c0.35,0.06,0.69,0.13,1.03,0.2c2.58,0.53,5.1,1.26,7.49,2.41c0.15,0.07,0.28,0.08,0.44,0.03
		c1.29-0.43,2.58-0.85,3.87-1.27C35.4,9.21,36.22,8.94,37.08,8.66z M20.57,4c-0.12,0-0.22,0-0.32,0c-1.9,0.07-3.75,0.41-5.58,0.92
		c-0.11,0.03-0.21,0.09-0.3,0.16c-2.3,1.76-4.17,3.9-5.61,6.42c-0.05,0.09-0.07,0.23-0.05,0.34c0.28,1.41,0.57,2.81,0.86,4.21
		c0.07,0.35,0.15,0.69,0.22,1.03c0.05,0,0.06,0.01,0.08,0.01c1.77-0.34,3.53-0.68,5.3-1.03c0.09-0.02,0.19-0.1,0.23-0.18
		c1.53-2.61,3.29-5.05,5.25-7.35c0.07-0.08,0.11-0.22,0.11-0.32c-0.01-0.48-0.04-0.96-0.06-1.44C20.67,5.85,20.62,4.94,20.57,4z
		 M22.25,42.7c0.08,0.02,0.12,0.04,0.16,0.04c3.76,0.85,7.48,0.75,11.17-0.39c2.51-0.77,4.79-1.99,6.86-3.6
		c0.15-0.11,0.18-0.21,0.12-0.39c-0.12-0.36-0.22-0.73-0.31-1.11c-0.04-0.18-0.13-0.25-0.3-0.3c-1.64-0.47-3.27-0.95-4.91-1.41
		c-0.16-0.04-0.36-0.04-0.51,0.01c-3.23,1.1-6.45,2.22-9.67,3.33c-0.11,0.04-0.22,0.13-0.29,0.23c-0.4,0.59-0.79,1.2-1.18,1.8
		C23.02,41.51,22.64,42.09,22.25,42.7z M46.79,13.43c-0.47,0.5-0.91,0.96-1.33,1.43c-0.05,0.06-0.05,0.17-0.05,0.25
		c-0.11,2.56-0.21,5.11-0.31,7.67c0,0.12,0.03,0.26,0.07,0.37c0.49,1.18,0.88,2.38,1.14,3.63c0.09,0.42,0.16,0.84,0.25,1.29
		c0.29,0,0.58-0.02,0.86,0.01c0.22,0.02,0.3-0.07,0.36-0.28c1.18-4.27,1.06-8.5-0.35-12.69C47.24,14.56,47.01,14.02,46.79,13.43z
		 M6.3,25.62c0.48,2.76,1.44,5.28,2.88,7.61c1.45,2.33,3.28,4.31,5.5,5.93c-0.02-0.08-0.06-0.15-0.09-0.22
		c-0.82-1.47-1.55-2.99-2.1-4.59c-0.06-0.16-0.11-0.33-0.2-0.47c-1.63-2.57-3.26-5.14-4.9-7.71c-0.04-0.07-0.1-0.14-0.17-0.17
		C6.93,25.86,6.64,25.75,6.3,25.62z M41.27,38.06c2.86-2.55,4.91-5.59,6.18-9.21c-0.32,0-0.58,0.01-0.84,0
		c-0.15-0.01-0.23,0.04-0.3,0.18c-0.75,1.56-1.64,3.04-2.68,4.42c-0.82,1.09-1.7,2.14-2.55,3.22c-0.06,0.08-0.12,0.21-0.1,0.29
		C41.06,37.31,41.17,37.66,41.27,38.06z"/>
</g>
</svg>
