<?xml version="1.0" encoding="utf-8"?>
<!-- Generator: Adobe Illustrator 25.4.1, SVG Export Plug-In . SVG Version: 6.00 Build 0)  -->
<svg version="1.1" id="Capa_1" xmlns="http://www.w3.org/2000/svg" xmlns:xlink="http://www.w3.org/1999/xlink" x="0px" y="0px"
	 viewBox="0 0 17.01 20" style="enable-background:new 0 0 17.01 20;" xml:space="preserve">
<style type="text/css">
	.st0{fill:#FFFFFF;}
</style>
<g id="Iconly_Bold_Notification">
	<g id="Notification_00000008109288621888084660000005703636637802389174_" transform="translate(3.5 2)">
		<path id="Notification-2_00000039094166905952011790000016492916377520498091_" class="st0" d="M4.49,17.97
			c-0.63-0.09-1.22-0.34-1.71-0.73c-0.4-0.26-0.66-0.69-0.7-1.17c0-0.5,0.46-0.73,0.89-0.83c1.35-0.11,2.7-0.11,4.05,0
			c0.43,0.1,0.89,0.33,0.89,0.83c-0.04,0.48-0.29,0.91-0.69,1.17c-0.5,0.39-1.09,0.64-1.71,0.73C5.32,17.99,5.16,18,4.99,18
			C4.82,18,4.65,17.99,4.49,17.97z M0.27,13.75c-1.11-0.1-2.14-0.6-2.9-1.41c-0.57-0.66-0.87-1.51-0.86-2.38
			C-3.54,9.12-3.28,8.3-2.76,7.65C-2.03,6.89-1.64,5.86-1.7,4.8V4.37c-0.07-1.4,0.39-2.78,1.28-3.86C0.92-1.07,2.89-1.99,4.96-2
			h0.09c2.12,0,4.13,0.97,5.47,2.62c0.84,1.06,1.27,2.39,1.2,3.75V4.8c-0.05,1.05,0.34,2.08,1.06,2.85
			c0.52,0.65,0.78,1.47,0.73,2.31c0.01,0.87-0.3,1.72-0.86,2.38c-0.76,0.81-1.79,1.31-2.9,1.41c-1.57,0.13-3.14,0.25-4.74,0.25
			C3.42,14,1.84,13.92,0.27,13.75z"/>
	</g>
</g>
</svg>
