<?xml version="1.0" encoding="utf-8"?>
<!-- Generator: Adobe Illustrator 25.4.1, SVG Export Plug-In . SVG Version: 6.00 Build 0)  -->
<svg version="1.1" id="Capa_1" xmlns="http://www.w3.org/2000/svg" xmlns:xlink="http://www.w3.org/1999/xlink" x="0px" y="0px"
	 viewBox="0 0 18.61 18.6" style="enable-background:new 0 0 18.61 18.6;" xml:space="preserve">
<style type="text/css">
	.st0{fill:#FFFFFF;}
</style>
<path id="_Color" class="st0" d="M9.31,18.6C4.17,18.61,0,14.45,0,9.31c0-2.47,0.98-4.84,2.73-6.58c3.63-3.63,9.52-3.63,13.16,0
	s3.63,9.52,0,13.16C14.14,17.63,11.77,18.61,9.31,18.6z M9.31,10.62L9.31,10.62l3.34,3.34l1.31-1.31L10.62,9.3l3.34-3.34l-1.31-1.31
	L9.31,7.99L5.97,4.65L4.66,5.97L7.99,9.3l-3.34,3.34l1.31,1.31L9.31,10.62L9.31,10.62z"/>
</svg>
