<?xml version="1.0" encoding="utf-8"?>
<!-- Generator: Adobe Illustrator 25.4.1, SVG Export Plug-In . SVG Version: 6.00 Build 0)  -->
<svg version="1.1" id="Capa_1" xmlns="http://www.w3.org/2000/svg" xmlns:xlink="http://www.w3.org/1999/xlink" x="0px" y="0px"
	 viewBox="0 0 98.64 65.75" style="enable-background:new 0 0 98.64 65.75;" xml:space="preserve">
<style type="text/css">
	.st0{fill:#FFFFFF;}
</style>
<path class="st0" d="M96.88,0L61.27,0L1.77,0C0.23,0,0,0.23,0,1.74v62.27c0,1.51,0.23,1.74,1.77,1.74h95.11
	c1.54,0,1.77-0.23,1.77-1.74V1.74C98.64,0.23,98.41,0,96.88,0z M58.41,38.53c-1.69,2.78-4.18,4.42-7.59,4.99V22.26
	c3.35,0.52,5.9,2.18,7.58,4.94C60.69,30.96,60.69,34.77,58.41,38.53z M50.82,46.45c3.86-0.5,7-2.28,9.32-5.28
	c1.91-2.47,2.86-5.34,2.82-8.55c-0.1-6.86-5.17-12.39-12.13-13.33V2.94h44.84V15.5l-3.88,0c-3.2,0-6.41,0-9.61,0
	c-1.31,0-1.55,0.25-1.55,1.55l0,1.09c0,1.29-0.01,2.61,0.01,3.92c0,0.28-0.03,0.34-0.26,0.47c-4.16,2.29-6.27,5.76-6.28,10.31
	c-0.01,4.59,2.11,8.08,6.29,10.38c0.22,0.12,0.25,0.18,0.25,0.48c-0.01,1.26-0.01,2.55-0.01,3.79l0,1.15c0,1.39,0.23,1.61,1.65,1.61
	l13.38,0v12.55H50.82V46.45z M76.87,32.32c0.15-2.76,1.37-4.95,3.71-6.67V40.1C77.91,38.07,76.69,35.52,76.87,32.32z M95.67,25.85
	v14.05h-5.16V25.85H95.67z M83.45,18.33h12.22v4.72h-0.32c-0.58,0-1.17,0-1.76,0c-1.48,0-3.01,0.01-4.52-0.01
	c-0.3,0-0.74,0.03-1.06,0.34c-0.32,0.32-0.36,0.76-0.35,1.06c0.02,5.59,0.02,11.26,0,16.85c0,0.31,0.04,0.75,0.35,1.07
	c0.32,0.32,0.76,0.34,1.06,0.34c1.51-0.02,3.05-0.01,4.53-0.01c0.58,0,1.16,0,1.74,0h0.34v4.7H83.45V18.33z M2.98,39.93V25.79h5.19
	v14.14H2.98z M2.96,18.24h12.32v29.27H2.97v-4.74c0.06,0,0.12-0.01,0.18-0.01c0.49,0,0.98,0,1.47-0.01c1.6-0.01,3.26-0.01,4.88,0.01
	c0.37,0,0.83-0.03,1.15-0.35c0.33-0.33,0.37-0.79,0.36-1.11c-0.02-5.57-0.02-11.24,0-16.85c0-0.32-0.04-0.79-0.36-1.12
	c-0.33-0.32-0.79-0.36-1.15-0.35C7.83,23,6.19,23,4.44,23c-0.49,0-0.99,0-1.49,0V18.24z M18.14,40.16V25.59
	c2.53,1.88,3.76,4.27,3.77,7.28C21.91,35.88,20.68,38.28,18.14,40.16z M2.96,50.34c0.13-0.01,0.26-0.02,0.39-0.02
	c2.52,0,5.03,0,7.55,0l5.49,0c1.45,0,1.69-0.24,1.69-1.72l0-1.26c0-1.18,0.01-2.4-0.01-3.6c0-0.27,0.03-0.34,0.26-0.46
	c4.19-2.29,6.32-5.78,6.33-10.37c0.01-4.62-2.13-8.13-6.35-10.44c-0.23-0.12-0.24-0.17-0.24-0.39c0.01-0.74,0.01-1.48,0-2.2
	c0-0.97-0.01-1.98,0.02-2.96c0.01-0.32-0.02-0.79-0.34-1.12c-0.32-0.33-0.79-0.37-1.15-0.37c-3.3,0.02-6.66,0.02-9.91,0.01l-3.73,0
	V2.95h44.86v16.29c-8.19,1.06-12.66,8.38-12.11,14.72c0.46,5.31,4.44,11.41,12.11,12.48v16.35H2.96V50.34z M40.08,27.47
	c1.66-2.9,4.26-4.66,7.75-5.22v21.23c-3.22-0.47-5.71-2.04-7.42-4.67C38.01,35.11,37.9,31.29,40.08,27.47z"/>
</svg>
