<?xml version="1.0" encoding="utf-8"?>
<!-- Generator: Adobe Illustrator 25.4.1, SVG Export Plug-In . SVG Version: 6.00 Build 0)  -->
<svg version="1.1" id="Capa_1" xmlns="http://www.w3.org/2000/svg" xmlns:xlink="http://www.w3.org/1999/xlink" x="0px" y="0px"
	 viewBox="0 0 20 19.96" style="enable-background:new 0 0 20 19.96;" xml:space="preserve">
<style type="text/css">
	.st0{fill:#FFFFFF;}
</style>
<g id="Iconly_Bold_Chat" transform="translate(48)">
	<g id="Chat" transform="translate(2 2)">
		<path id="Chat-2" class="st0" d="M-40,17.98c-1.72,0-3.42-0.45-4.92-1.3c-0.32-0.24-0.71-0.39-1.11-0.42
			c-0.13,0-0.26,0.02-0.38,0.06l-2.02,0.6c-0.07,0.02-0.15,0.04-0.23,0.04c-0.19,0-0.38-0.09-0.5-0.24
			c-0.12-0.17-0.16-0.38-0.09-0.58l0.67-2.24c0.11-0.3,0.09-0.63-0.07-0.9c-0.86-1.53-1.32-3.25-1.35-5c0.01-2.6,1.03-5.1,2.83-6.98
			c1.88-1.95,4.48-3.05,7.19-3.03c2.68-0.01,5.25,1.07,7.12,2.99c0.9,0.92,1.61,2,2.1,3.18c0.5,1.21,0.76,2.5,0.76,3.81
			c0.01,1.44-0.28,2.86-0.86,4.17c-0.54,1.2-1.31,2.27-2.27,3.15C-35.01,17.01-37.46,17.97-40,17.98z M-35.41,6.72
			c-0.71,0-1.28,0.57-1.28,1.28c0,0.71,0.57,1.28,1.28,1.28c0.71,0,1.28-0.57,1.28-1.28c0,0,0,0,0,0
			C-34.13,7.3-34.7,6.72-35.41,6.72z M-40.04,6.72c-0.7,0-1.26,0.57-1.26,1.27c0,0.71,0.57,1.28,1.27,1.29
			c0.71,0,1.28-0.57,1.29-1.27c0-0.71-0.57-1.28-1.27-1.29c0,0-0.01,0-0.01,0H-40.04z M-44.63,6.72c-0.71,0-1.28,0.57-1.28,1.28
			c0,0.71,0.57,1.28,1.28,1.28c0.71,0,1.28-0.57,1.28-1.28c0,0,0,0,0,0C-43.35,7.3-43.92,6.73-44.63,6.72z"/>
	</g>
</g>
</svg>
